<svg width="103" height="90" viewBox="0 0 103 90" fill="none" xmlns="http://www.w3.org/2000/svg">
<path d="M81.5417 26.2501V37.4626C81.5417 37.4626 73.0012 37.5001 72.9583 37.4626V26.2501H60.0833C60.0833 26.2501 60.1262 18.7876 60.0833 18.7501H72.9583V7.50012H81.5417V18.7501H94.4167V26.2501H81.5417ZM68.6667 41.2501V30.0001H55.7917V18.7501H21.4583C16.7375 18.7501 12.875 22.1251 12.875 26.2501V71.2501C12.875 75.3751 16.7375 78.7501 21.4583 78.7501H72.9583C77.6792 78.7501 81.5417 75.3751 81.5417 71.2501V41.2501H68.6667ZM21.4583 71.2501L34.3333 56.2501L42.9167 67.5001L55.7917 52.5001L72.9583 71.2501H21.4583Z" fill="#D9D9D9"/>
</svg>
